<svg xmlns="http://www.w3.org/2000/svg" width="772" height="772" version="1" viewBox="0 0 579 579"><path fill="#fff" d="M25.3 289.672L289.33 553.7l264.073-264.072c-88.053-87.952-175.93-176.08-264.03-263.985L25.302 289.673z"/><path fill="red" d="M147.66 148.012L6 289.672l141.67 141.67L289.327 573l141.688-141.688 141.688-141.688-141.64-141.64C353.165 70.086 289.403 6.344 289.375 6.344c-.03 0-63.8 63.752-141.717 141.668zm260.962 22.413l119.2 119.2L408.574 408.87 289.32 528.128 170.13 408.87 50.94 289.616l119.2-119.2c65.556-65.556 119.207-119.19 119.236-119.19.028 0 53.69 53.643 119.246 119.2z"/><path d="M289.525 121.375c-17.58 33.58 3.84 52.535-19.775 102-12.53-10.01-5.266-47.423-30.15-48.05 3.83 11.49.963 15.95.325 20.1-2.475 16.09-8.22 30.468 2.95 51.85-17.158-8.336-17.443-23.632-31.95-33.225 2.872 16.276-4.044 49.28 15.225 80.9-17.17-1.69-22.865-8.29-41.45-26.1 19.396 100.477 33.826 103.3 104.95 109-5.36-.628-41.195-6.35-54.175-47.65-.737-10.226-1.14 8.987 33.325 9.625-21.823-34.562-15.878-28.02-13.325-48.125 9.034 13.76 1.12 14.963 26.65 25.175-8.095-25.718 12.493-43.315 8.025-72.675 5.64 12.894 25.707 10.864 24.75 72.775 16.615-18.536 18.597-5.706 26.575-26.45.462 11.548 5.53 25.928-17.05 49.6 5.744 1.596 15.363 2.83 31-7.7-15.226 17.256-1.465 17.663-39.975 45.9 48.508.638 80.367-29.897 79.225-97-1.277 5.744-2.706 17.215-28.875 20.725 16.392-16.288 24.934-48.718 11.85-75.525-4.607 4.285-11.767 24.206-29 29.95 8.74-14.34 6.775-32.9 6.775-32.9s2.23-25.066-12.575-44.425c-4.15 30.317-3.802 45.563-22.95 50.35 3.08-17.893 3.65-26.226-5.925-46.65-10-21.332-21.578-42.327-24.45-61.475zm-80.1 273.8V412.75h170.75l-.025-8.775-.025-8.75-85.325-.025-85.375-.025z"/></svg>